<?xml version="1.0"?>
<svg xmlns="http://www.w3.org/2000/svg" xmlns:xlink="http://www.w3.org/1999/xlink" version="1.1" id="Capa_1" x="0px" y="0px" viewBox="0 0 426.667 426.667" style="enable-background:new 0 0 426.667 426.667;" xml:space="preserve" width="512px" height="512px" class=""><g><g>
	<g>
		<g>
			<path d="M384,42.667H42.667c-23.573,0-42.453,19.093-42.453,42.667L0,341.333C0,364.907,19.093,384,42.667,384H384     c23.573,0,42.667-19.093,42.667-42.667v-256C426.667,61.76,407.573,42.667,384,42.667z M384,341.333H42.667v-256H384V341.333z" data-original="#000000" class="active-path" data-old_color="#000000" fill="#666666"/>
			<path d="M192,320h42.667v-21.333H256c11.733,0,21.333-9.6,21.333-21.333v-64c0-11.733-9.6-21.333-21.333-21.333h-64v-21.333     h85.333V128h-42.667v-21.333H192V128h-21.333c-11.733,0-21.333,9.6-21.333,21.333v64c0,11.733,9.6,21.333,21.333,21.333h64V256     h-85.333v42.667H192V320z" data-original="#000000" class="active-path" data-old_color="#000000" fill="#666666"/>
		</g>
	</g>
</g></g> </svg>
